<svg xmlns="http://www.w3.org/2000/svg" xmlns:xlink="http://www.w3.org/1999/xlink" width="500" zoomAndPan="magnify" viewBox="0 0 375 374.999991" height="500" preserveAspectRatio="xMidYMid meet" version="1.0"><defs><filter x="0%" y="0%" width="100%" height="100%" id="62b18c349d"><feColorMatrix values="0 0 0 0 1 0 0 0 0 1 0 0 0 0 1 0 0 0 1 0" color-interpolation-filters="sRGB"/></filter><mask id="294ae2e94d"><g filter="url(#62b18c349d)"><rect x="-37.5" width="450" fill="#000000" y="-37.499999" height="449.999989" fill-opacity="0.549"/></g></mask><clipPath id="7ad3cf490f"><path d="M 1 0.1875 L 367 0.1875 L 367 285.359375 L 1 285.359375 Z M 1 0.1875 " clip-rule="nonzero"/></clipPath><clipPath id="b8b957386e"><rect x="0" width="368" y="0" height="286"/></clipPath></defs><g mask="url(#294ae2e94d)"><g transform="matrix(1, 0, 0, 1, 2, 42)"><g clip-path="url(#b8b957386e)"><g clip-path="url(#7ad3cf490f)"><path fill="#e48714" d="M 165.324219 215.261719 C 158.316406 260.285156 116.191406 291.1875 71.140625 284.171875 C 28.660156 277.511719 -1.140625 239.59375 1.519531 197.503906 C -1.851562 71.9375 127.367188 0.1875 127.367188 0.1875 C 127.367188 0.1875 73.710938 48.496094 51.363281 126.816406 C 65.109375 120.867188 80.628906 118.558594 96.59375 121.046875 C 141.554688 128.058594 172.328125 170.242188 165.324219 215.261719 Z M 297.023438 121.046875 C 281.148438 118.558594 265.628906 120.867188 251.792969 126.816406 C 274.140625 48.496094 327.886719 0.1875 327.886719 0.1875 C 327.886719 0.1875 198.667969 71.9375 202.039062 197.503906 C 199.378906 239.59375 229.179688 277.601562 271.660156 284.171875 C 316.621094 291.1875 358.835938 260.375 365.84375 215.261719 C 372.851562 170.242188 341.988281 128.058594 297.023438 121.046875 Z M 297.023438 121.046875 " fill-opacity="1" fill-rule="nonzero"/></g></g></g></g></svg>