<svg xmlns="http://www.w3.org/2000/svg" xmlns:xlink="http://www.w3.org/1999/xlink" width="1200" zoomAndPan="magnify" viewBox="0 0 900 899.99999" height="1200" preserveAspectRatio="xMidYMid meet" version="1.0"><defs><g/><clipPath id="668fe71af6"><path d="M 172 198 L 727.722656 198 L 727.722656 387.179688 L 172 387.179688 Z M 172 198 " clip-rule="nonzero"/></clipPath><clipPath id="aeceea807f"><path d="M 246 54 L 460 54 L 460 387.179688 L 246 387.179688 Z M 246 54 " clip-rule="nonzero"/></clipPath><clipPath id="a127b0b596"><path d="M 245 198 L 460 198 L 460 387.179688 L 245 387.179688 Z M 245 198 " clip-rule="nonzero"/></clipPath><clipPath id="c2ebe1b3a8"><path d="M 449 217 L 654 217 L 654 387.179688 L 449 387.179688 Z M 449 217 " clip-rule="nonzero"/></clipPath><clipPath id="d9697d04ef"><path d="M 619 362 L 654 362 L 654 387.179688 L 619 387.179688 Z M 619 362 " clip-rule="nonzero"/></clipPath></defs><rect x="-90" width="1080" fill="#ffffff" y="-89.999999" height="1079.999988" fill-opacity="1"/><rect x="-90" width="1080" fill="#ffffff" y="-89.999999" height="1079.999988" fill-opacity="1"/><rect x="-90" width="1080" fill="#ffffff" y="-89.999999" height="1079.999988" fill-opacity="1"/><g clip-path="url(#668fe71af6)"><path fill="#545454" d="M 644.5 377.753906 L 644.5 368.308594 L 261.425781 368.308594 L 196.402344 216.960938 L 703.296875 216.960938 L 635.820312 374.023438 L 644.5 377.753906 L 644.5 368.308594 L 644.5 377.753906 L 653.179688 381.476562 L 726.316406 211.242188 C 727.574219 208.3125 727.277344 204.984375 725.523438 202.324219 C 723.769531 199.664062 720.824219 198.078125 717.636719 198.078125 L 182.066406 198.078125 C 178.875 198.078125 175.929688 199.664062 174.175781 202.324219 C 172.417969 204.984375 172.125 208.3125 173.382812 211.242188 L 246.523438 381.476562 C 248.003906 384.929688 251.4375 387.195312 255.203125 387.195312 L 644.496094 387.195312 C 648.257812 387.195312 651.691406 384.929688 653.175781 381.476562 L 644.5 377.753906 " fill-opacity="1" fill-rule="nonzero"/></g><path fill="#545454" d="M 449.851562 41.894531 L 443.585938 48.960938 L 612.679688 198.710938 L 287.019531 198.710938 L 456.113281 48.960938 L 449.851562 41.894531 L 443.585938 48.960938 L 449.851562 41.894531 L 443.585938 34.824219 L 255.847656 201.085938 C 252.902344 203.695312 251.882812 207.824219 253.277344 211.5 C 254.675781 215.179688 258.175781 217.597656 262.109375 217.597656 L 637.589844 217.597656 C 641.527344 217.597656 645.027344 215.179688 646.421875 211.5 C 647.820312 207.820312 646.800781 203.695312 643.855469 201.085938 L 456.113281 34.824219 C 452.527344 31.652344 447.167969 31.652344 443.585938 34.824219 L 449.851562 41.894531 " fill-opacity="1" fill-rule="nonzero"/><g clip-path="url(#aeceea807f)"><path fill="#545454" d="M 246.425781 381.25 C 246.8125 382.21875 247.367188 383.140625 248.09375 383.96875 C 249.960938 386.101562 252.578125 387.195312 255.207031 387.195312 C 255.226562 387.195312 255.246094 387.195312 255.265625 387.195312 L 255.203125 387.195312 C 251.4375 387.195312 248.003906 384.929688 246.523438 381.476562 L 246.425781 381.25 M 447.027344 217.597656 L 423.980469 217.597656 L 258.757812 362.097656 L 261.425781 368.308594 L 280.34375 368.308594 L 449.847656 220.066406 L 447.027344 217.597656 M 449.847656 54.507812 L 440.402344 62.875 L 440.402344 198.078125 L 449.800781 198.078125 C 449.816406 198.078125 449.832031 198.078125 449.851562 198.078125 C 449.875 198.078125 449.894531 198.078125 449.914062 198.078125 L 459.296875 198.078125 L 459.296875 62.878906 L 449.847656 54.507812 " fill-opacity="1" fill-rule="nonzero"/></g><g clip-path="url(#a127b0b596)"><path fill="#545454" d="M 258.757812 362.097656 L 248.980469 370.644531 C 245.882812 373.351562 244.980469 377.636719 246.425781 381.253906 L 246.523438 381.480469 C 248.003906 384.933594 251.4375 387.195312 255.203125 387.195312 L 255.265625 387.195312 C 257.453125 387.179688 259.644531 386.410156 261.421875 384.859375 L 280.34375 368.3125 L 261.425781 368.3125 L 258.757812 362.097656 M 449.800781 198.074219 L 440.402344 198.074219 L 440.402344 198.710938 L 446.4375 198.710938 C 447.515625 198.296875 448.65625 198.082031 449.800781 198.074219 M 459.296875 198.074219 L 449.914062 198.074219 C 451.046875 198.082031 452.179688 198.292969 453.261719 198.710938 L 459.296875 198.710938 L 459.296875 198.074219 " fill-opacity="1" fill-rule="nonzero"/></g><path fill="#545454" d="M 446.441406 198.710938 L 440.40625 198.710938 L 440.40625 203.234375 L 423.980469 217.597656 L 447.03125 217.597656 L 443.632812 214.625 C 439.703125 211.191406 439.304688 205.226562 442.742188 201.304688 C 443.78125 200.109375 445.058594 199.242188 446.441406 198.710938 M 459.296875 198.710938 L 453.261719 198.710938 C 454.261719 199.097656 455.214844 199.664062 456.070312 200.414062 L 459.296875 203.234375 L 459.296875 198.710938 M 443.585938 48.960938 L 449.851562 41.894531 L 443.585938 48.960938 M 449.851562 32.449219 C 444.636719 32.449219 440.40625 36.679688 440.40625 41.894531 L 440.40625 62.875 L 449.851562 54.507812 L 459.296875 62.875 L 459.296875 41.894531 C 459.296875 36.679688 455.066406 32.449219 449.851562 32.449219 " fill-opacity="1" fill-rule="nonzero"/><g clip-path="url(#c2ebe1b3a8)"><path fill="#545454" d="M 653.277344 381.253906 L 653.179688 381.476562 C 651.695312 384.929688 648.257812 387.195312 644.5 387.195312 L 644.4375 387.195312 C 644.457031 387.195312 644.476562 387.195312 644.496094 387.195312 C 647.125 387.195312 649.742188 386.101562 651.609375 383.96875 C 652.335938 383.140625 652.886719 382.222656 653.277344 381.253906 M 475.714844 217.597656 L 452.671875 217.597656 L 449.847656 220.066406 L 619.355469 368.308594 L 638.273438 368.308594 L 640.941406 362.097656 L 475.714844 217.597656 " fill-opacity="1" fill-rule="nonzero"/></g><g clip-path="url(#d9697d04ef)"><path fill="#545454" d="M 640.945312 362.097656 L 638.277344 368.308594 L 619.355469 368.308594 L 638.277344 384.855469 C 640.054688 386.410156 642.25 387.179688 644.4375 387.195312 L 644.5 387.195312 C 648.261719 387.195312 651.695312 384.929688 653.179688 381.476562 L 653.277344 381.253906 C 654.722656 377.636719 653.820312 373.351562 650.722656 370.644531 L 640.945312 362.097656 " fill-opacity="1" fill-rule="nonzero"/></g><path fill="#545454" d="M 459.296875 203.234375 L 459.296875 207.519531 C 459.296875 210.25 458.128906 212.824219 456.070312 214.625 L 452.671875 217.597656 L 475.714844 217.597656 L 459.296875 203.234375 " fill-opacity="1" fill-rule="nonzero"/><path fill="#545454" d="M 452.675781 217.597656 L 447.03125 217.597656 L 449.851562 220.066406 L 452.675781 217.597656 M 449.851562 198.074219 C 449.835938 198.074219 449.816406 198.074219 449.800781 198.074219 L 449.914062 198.074219 C 449.894531 198.074219 449.875 198.074219 449.851562 198.074219 " fill-opacity="1" fill-rule="nonzero"/><path fill="#545454" d="M 449.914062 198.074219 L 449.800781 198.074219 C 448.65625 198.082031 447.515625 198.292969 446.4375 198.710938 L 453.257812 198.710938 C 452.183594 198.292969 451.046875 198.082031 449.914062 198.074219 " fill-opacity="1" fill-rule="nonzero"/><path fill="#545454" d="M 453.261719 198.710938 L 446.441406 198.710938 C 445.058594 199.246094 443.78125 200.109375 442.742188 201.300781 C 439.304688 205.226562 439.707031 211.191406 443.632812 214.625 L 447.03125 217.597656 L 452.675781 217.597656 L 456.070312 214.625 C 458.128906 212.824219 459.296875 210.25 459.296875 207.519531 L 459.296875 203.234375 L 456.070312 200.414062 C 455.214844 199.664062 454.261719 199.097656 453.261719 198.710938 " fill-opacity="1" fill-rule="nonzero"/><g fill="#545454" fill-opacity="1"><g transform="translate(116.835422, 591.859634)"><g><path d="M 143.710938 -42.765625 L 127.882812 -42.765625 C 122.945312 -33.71875 116.164062 -26.316406 107.527344 -20.972656 C 98.890625 -15.417969 89.230469 -12.746094 78.949219 -12.746094 C 63.53125 -12.746094 50.371094 -18.296875 39.476562 -29.8125 C 28.785156 -40.707031 23.644531 -54.070312 23.644531 -69.699219 C 23.644531 -85.324219 28.785156 -98.6875 39.476562 -109.789062 C 44.410156 -114.929688 50.371094 -119.039062 57.15625 -122.125 C 63.734375 -125.207031 70.3125 -126.851562 76.894531 -126.851562 C 83.265625 -126.851562 88.816406 -126.03125 93.753906 -124.59375 C 108.761719 -120.070312 120.070312 -111.023438 127.675781 -97.246094 L 143.507812 -97.246094 C 138.160156 -110.40625 129.730469 -121.097656 118.011719 -129.320312 C 106.089844 -137.542969 93.136719 -141.65625 78.949219 -141.65625 C 59.417969 -141.65625 42.96875 -134.460938 29.402344 -120.273438 C 23.027344 -113.695312 18.09375 -105.882812 14.597656 -97.246094 C 10.898438 -88.613281 9.25 -79.359375 9.25 -69.699219 C 9.25 -49.960938 15.832031 -33.308594 29.402344 -19.324219 C 42.96875 -4.933594 59.417969 2.054688 78.949219 2.054688 C 93.136719 2.054688 106.089844 -2.054688 118.21875 -10.28125 C 129.9375 -18.503906 138.367188 -29.195312 143.710938 -42.765625 Z M 143.710938 -42.765625 "/></g></g></g><g fill="#545454" fill-opacity="1"><g transform="translate(287.895436, 591.859634)"><g><path d="M 29.8125 -69.082031 L 29.8125 -126.03125 L 62.296875 -126.03125 C 70.726562 -126.03125 77.511719 -123.359375 82.648438 -118.011719 C 87.585938 -112.667969 90.257812 -106.089844 90.257812 -97.863281 C 90.257812 -89.640625 87.585938 -82.855469 82.238281 -77.304688 C 76.894531 -71.753906 70.3125 -69.082031 62.296875 -69.082031 Z M 104.648438 -97.660156 C 104.648438 -109.582031 100.125 -119.863281 91.492188 -127.882812 C 83.0625 -135.695312 72.574219 -139.804688 60.238281 -139.804688 L 15.417969 -139.804688 L 15.417969 0 L 29.8125 0 L 29.8125 -55.304688 L 46.464844 -55.304688 L 87.585938 0 L 106.910156 0 L 63.734375 -55.304688 C 74.632812 -55.921875 83.882812 -59.828125 91.492188 -67.023438 C 100.125 -75.042969 104.648438 -85.324219 104.648438 -97.660156 Z M 104.648438 -97.660156 "/></g></g></g><g fill="#545454" fill-opacity="1"><g transform="translate(420.920095, 591.859634)"><g><path d="M 38.035156 -51.398438 L 63.53125 -115.75 L 88.816406 -51.398438 Z M 124.796875 0 L 63.53125 -149.46875 L 2.054688 0 L 17.679688 0 L 32.691406 -38.035156 L 94.164062 -38.035156 L 109.171875 0 Z M 124.796875 0 "/></g></g></g><g fill="#545454" fill-opacity="1"><g transform="translate(568.953322, 591.859634)"><g><path d="M 98.480469 -126.441406 L 98.480469 -139.804688 L 15.417969 -139.804688 L 15.417969 0 L 29.8125 0 L 29.8125 -63.117188 L 96.425781 -63.117188 L 96.425781 -76.6875 L 29.8125 -76.6875 L 29.8125 -126.441406 Z M 98.480469 -126.441406 "/></g></g></g><g fill="#545454" fill-opacity="1"><g transform="translate(692.726056, 591.859634)"><g><path d="M 4.113281 -126.851562 L 38.035156 -126.851562 L 38.035156 -0.410156 L 52.425781 -0.410156 L 52.425781 -126.851562 L 86.351562 -126.851562 L 86.351562 -140.21875 L 4.113281 -140.21875 Z M 4.113281 -126.851562 "/></g></g></g><g fill="#545454" fill-opacity="1"><g transform="translate(54.183012, 820.571346)"><g><path d="M 29.8125 -69.082031 L 29.8125 -126.03125 L 62.296875 -126.03125 C 70.726562 -126.03125 77.511719 -123.359375 82.648438 -118.011719 C 87.585938 -112.667969 90.257812 -106.089844 90.257812 -97.863281 C 90.257812 -89.640625 87.585938 -82.855469 82.238281 -77.304688 C 76.894531 -71.753906 70.3125 -69.082031 62.296875 -69.082031 Z M 104.648438 -97.660156 C 104.648438 -109.582031 100.125 -119.863281 91.492188 -127.882812 C 83.0625 -135.695312 72.574219 -139.804688 60.238281 -139.804688 L 15.417969 -139.804688 L 15.417969 0 L 29.8125 0 L 29.8125 -55.304688 L 46.464844 -55.304688 L 87.585938 0 L 106.910156 0 L 63.734375 -55.304688 C 74.632812 -55.921875 83.882812 -59.828125 91.492188 -67.023438 C 100.125 -75.042969 104.648438 -85.324219 104.648438 -97.660156 Z M 104.648438 -97.660156 "/></g></g></g><g fill="#545454" fill-opacity="1"><g transform="translate(187.20767, 820.571346)"><g><path d="M 38.035156 -51.398438 L 63.53125 -115.75 L 88.816406 -51.398438 Z M 124.796875 0 L 63.53125 -149.46875 L 2.054688 0 L 17.679688 0 L 32.691406 -38.035156 L 94.164062 -38.035156 L 109.171875 0 Z M 124.796875 0 "/></g></g></g><g fill="#545454" fill-opacity="1"><g transform="translate(335.240897, 820.571346)"><g><path d="M 29.8125 -103.003906 L 108.351562 8.636719 L 108.351562 -139.804688 L 93.957031 -139.804688 L 93.957031 -37.007812 L 15.417969 -148.648438 L 15.417969 0 L 29.8125 0 Z M 29.8125 -103.003906 "/></g></g></g><g fill="#545454" fill-opacity="1"><g transform="translate(480.190122, 820.571346)"><g><path d="M 29.8125 0 L 29.8125 -65.585938 L 76.894531 0 L 95.398438 0 L 43.996094 -69.902344 L 95.398438 -139.804688 L 76.894531 -139.804688 L 29.8125 -74.015625 L 29.8125 -139.804688 L 15.417969 -139.804688 L 15.417969 0 Z M 29.8125 0 "/></g></g></g><g fill="#545454" fill-opacity="1"><g transform="translate(598.822955, 820.571346)"><g><path d="M 98.480469 0 L 98.480469 -13.363281 L 29.8125 -13.363281 L 29.8125 -63.117188 L 96.425781 -63.117188 L 96.425781 -76.6875 L 29.8125 -76.6875 L 29.8125 -126.441406 L 98.480469 -126.441406 L 98.480469 -139.804688 L 15.417969 -139.804688 L 15.417969 0 Z M 98.480469 0 "/></g></g></g><g fill="#545454" fill-opacity="1"><g transform="translate(733.903478, 820.571346)"><g><path d="M 29.8125 -69.082031 L 29.8125 -126.03125 L 62.296875 -126.03125 C 70.726562 -126.03125 77.511719 -123.359375 82.648438 -118.011719 C 87.585938 -112.667969 90.257812 -106.089844 90.257812 -97.863281 C 90.257812 -89.640625 87.585938 -82.855469 82.238281 -77.304688 C 76.894531 -71.753906 70.3125 -69.082031 62.296875 -69.082031 Z M 104.648438 -97.660156 C 104.648438 -109.582031 100.125 -119.863281 91.492188 -127.882812 C 83.0625 -135.695312 72.574219 -139.804688 60.238281 -139.804688 L 15.417969 -139.804688 L 15.417969 0 L 29.8125 0 L 29.8125 -55.304688 L 46.464844 -55.304688 L 87.585938 0 L 106.910156 0 L 63.734375 -55.304688 C 74.632812 -55.921875 83.882812 -59.828125 91.492188 -67.023438 C 100.125 -75.042969 104.648438 -85.324219 104.648438 -97.660156 Z M 104.648438 -97.660156 "/></g></g></g></svg>